<svg id="Layer_2" data-name="Layer 2" xmlns="http://www.w3.org/2000/svg" viewBox="0 0 512 512"><defs><style>.cls-1{fill:#0095dd;}.cls-2{fill:#e29f96;}.cls-3{fill:#f1d2ad;}</style></defs><title>Artboard 6</title><path class="cls-1" d="M512,427.85a65.64,65.64,0,0,1-65.64,65.63q-3,0-5.84-.27a0,0,0,0,1,0,0A65.41,65.41,0,0,1,400,474.34l-.09-.09a65.4,65.4,0,0,1-19.22-46.4c0-8.77,7.68-15.42,19.31-19.94a93.9,93.9,0,0,1,15.79-4.45c2.13-.43,4.32-.81,6.54-1.13.45.49.89,1,1.38,1.46a31.93,31.93,0,0,0,45.21,0c.49-.47.93-1,1.37-1.46C493.47,405.72,512,414.22,512,427.85Z"/><path class="cls-2" d="M470.33,402.33c-.44.49-.88,1-1.37,1.46a31.93,31.93,0,0,1-45.21,0c-.49-.47-.93-1-1.38-1.46l1.33-.2,1.85-.24a31.11,31.11,0,0,0,4.68,3.35c.33.2.68.4,1,.58s.82.43,1.24.64h0l1.13.53,1.48.59q1.29.5,2.64.87c.46.13.91.25,1.39.34s.9.21,1.37.29a32.12,32.12,0,0,0,5.84.53h0c.5,0,1,0,1.47,0l1.15-.07.92-.1a3.4,3.4,0,0,0,.62-.08c.41,0,.82-.1,1.24-.18.26,0,.51-.09.76-.14a5.84,5.84,0,0,0,.63-.13c.25,0,.5-.1.74-.16s.27-.07.4-.1c.29-.08.58-.15.87-.24l.09,0c.8-.23,1.6-.5,2.38-.79l1.15-.46.64-.29c.27-.11.53-.23.8-.36s.75-.37,1.12-.57.56-.3.84-.47.65-.37,1-.57l.06,0c.32-.19.64-.4,1-.61l.84-.59a1.43,1.43,0,0,0,.22-.15c.24-.17.47-.36.7-.54.42-.33.85-.67,1.26-1C468.24,402,469.29,402.16,470.33,402.33Z"/><path class="cls-1" d="M478.34,370.28a31.86,31.86,0,0,1-.21,3.67c-.07.58-.15,1.16-.26,1.72a32,32,0,0,0-63,0c-.11-.58-.19-1.16-.25-1.75a29.76,29.76,0,0,1-.23-3.67,32,32,0,0,1,64,0Z"/><path class="cls-2" d="M477.87,375.67a28.21,28.21,0,0,1-1.08,4.44,29.63,29.63,0,0,1-1.16,3.06c-.16.39-.35.77-.53,1.14s-.4.79-.61,1.19c-.42.78-.87,1.53-1.35,2.27a32.06,32.06,0,0,1-4.17,5.12,31.93,31.93,0,0,1-45.21,0c-.63-.63-1.23-1.27-1.79-1.95-.29-.33-.56-.67-.84-1s-.53-.71-.79-1.06l-.82-1.19-.63-1a31.25,31.25,0,0,1-2.94-6.47c-.21-.66-.4-1.32-.58-2s-.37-1.63-.52-2.46v0a32,32,0,0,1,63,0Z"/><path class="cls-3" d="M477.87,375.67a31.26,31.26,0,0,1-1.08,4.44,29.63,29.63,0,0,1-1.16,3.06c-.16.39-.35.77-.53,1.14s-.38.79-.61,1.19c-.42.78-.87,1.53-1.35,2.27a32.06,32.06,0,0,1-4.17,5.12,31.93,31.93,0,0,1-45.21,0c-.63-.63-1.23-1.27-1.79-1.95-.29-.33-.56-.67-.84-1s-.53-.71-.79-1.06l-.82-1.19-.63-1a31.25,31.25,0,0,1-2.94-6.47c-.21-.66-.4-1.32-.58-2s-.37-1.63-.52-2.46v0a32,32,0,0,1,63,0Z"/><path class="cls-3" d="M470.33,402.33c-.44.49-.88,1-1.37,1.46a31.93,31.93,0,0,1-45.21,0c-.49-.47-.93-1-1.38-1.46l1.33-.2,1.85-.24a31.11,31.11,0,0,0,4.68,3.35c.33.2.68.4,1,.58s.81.43,1.24.64h0c.36.18.75.35,1.13.53l1.48.59c.87.33,1.74.61,2.64.87l1.39.34c.45.11.9.21,1.37.29a32.12,32.12,0,0,0,5.84.53h0c.5,0,1,0,1.47,0l1.15-.07.92-.1a3.29,3.29,0,0,0,.62-.08c.41,0,.82-.1,1.24-.18a6.75,6.75,0,0,0,.76-.14,6.39,6.39,0,0,0,.63-.13c.25,0,.49-.1.74-.16s.27-.07.4-.1c.29-.08.59-.15.87-.24l.09,0c.81-.24,1.6-.5,2.38-.79l1.15-.46.64-.29c.27-.11.54-.23.8-.36s.75-.37,1.12-.57.56-.3.84-.47.65-.37,1-.57l.06,0c.32-.19.64-.4,1-.61l.84-.59c.32-.22.62-.45.92-.69s.85-.67,1.26-1C468.24,402,469.29,402.16,470.33,402.33Z"/><path class="cls-1" d="M321.63,427.85A65.64,65.64,0,0,1,256,493.48c-2,0-3.91-.09-5.83-.27,0,0,0,0,0,0a65.39,65.39,0,0,1-40.44-18.87l-.1-.09a65.44,65.44,0,0,1-19.21-46.4c0-8.77,7.67-15.42,19.31-19.94a93.37,93.37,0,0,1,15.79-4.45q3.19-.65,6.54-1.13c.44.49.89,1,1.37,1.46a31.95,31.95,0,0,0,45.22,0c.48-.47.93-1,1.37-1.46C303.1,405.72,321.63,414.22,321.63,427.85Z"/><path class="cls-2" d="M280,402.33c-.44.49-.89,1-1.37,1.46a31.95,31.95,0,0,1-45.22,0c-.48-.47-.93-1-1.37-1.46l1.33-.2,1.85-.24a31,31,0,0,0,4.67,3.35c.34.2.68.4,1,.58s.82.43,1.23.64h0l1.14.53,1.48.59c.85.33,1.74.62,2.64.87.45.13.91.25,1.38.34s.91.21,1.37.29a32.2,32.2,0,0,0,5.84.53h0c.5,0,1,0,1.48,0l1.14-.07.92-.1a3.51,3.51,0,0,0,.63-.08q.61-.06,1.23-.18c.26,0,.52-.09.77-.14s.42-.08.63-.13.49-.1.73-.16.27-.07.4-.1c.29-.08.59-.15.88-.24l.08,0c.8-.23,1.6-.5,2.38-.79l1.16-.46.64-.29c.27-.11.53-.23.8-.36l1.11-.57.85-.47c.32-.17.64-.37,1-.57l0,0c.33-.19.64-.4,1-.61l.85-.59.21-.15c.24-.17.48-.36.71-.54.42-.33.84-.67,1.25-1C277.87,402,278.92,402.16,280,402.33Z"/><path class="cls-1" d="M288,370.28a29.77,29.77,0,0,1-.21,3.67c-.06.58-.14,1.16-.25,1.72a32,32,0,0,0-63,0c-.11-.58-.19-1.16-.26-1.75A32,32,0,1,1,288,370.28Z"/><path class="cls-2" d="M287.51,375.67a28.21,28.21,0,0,1-1.08,4.44c-.34,1.05-.73,2.06-1.16,3.06-.16.39-.35.77-.53,1.14l-.61,1.19c-.42.78-.87,1.53-1.36,2.27a32,32,0,0,1-49.38,5.12c-.63-.63-1.22-1.27-1.79-1.95-.29-.33-.56-.67-.83-1s-.53-.71-.79-1.06-.55-.79-.82-1.19l-.63-1a31.29,31.29,0,0,1-2.95-6.47c-.21-.66-.4-1.32-.58-2s-.37-1.63-.51-2.46v0a32,32,0,0,1,63,0Z"/><path class="cls-3" d="M287.51,375.67a31.26,31.26,0,0,1-1.08,4.44c-.34,1.05-.73,2.06-1.16,3.06-.16.39-.35.77-.53,1.14s-.39.79-.61,1.19c-.42.78-.87,1.53-1.36,2.27a32,32,0,0,1-49.38,5.12c-.63-.63-1.22-1.27-1.79-1.95-.29-.33-.56-.67-.83-1s-.53-.71-.79-1.06-.55-.79-.82-1.19l-.63-1a31.29,31.29,0,0,1-2.95-6.47c-.21-.66-.4-1.32-.58-2s-.37-1.63-.51-2.46v0a32,32,0,0,1,63,0Z"/><path class="cls-3" d="M280,402.33c-.44.49-.89,1-1.37,1.46a31.95,31.95,0,0,1-45.22,0c-.48-.47-.93-1-1.37-1.46l1.33-.2,1.85-.24a31,31,0,0,0,4.67,3.35c.34.2.68.4,1,.58s.81.43,1.23.64h0l1.14.53,1.48.59c.86.33,1.74.61,2.64.87l1.38.34c.46.11.91.21,1.37.29a32.2,32.2,0,0,0,5.84.53h0c.5,0,1,0,1.48,0l1.14-.07.92-.1a3.4,3.4,0,0,0,.63-.08q.61-.06,1.23-.18a6.92,6.92,0,0,0,.77-.14c.2,0,.42-.08.63-.13s.48-.1.73-.16.27-.07.4-.1c.29-.08.6-.15.88-.24l.08,0c.81-.24,1.6-.5,2.38-.79l1.16-.46.64-.29c.27-.11.54-.23.8-.36l1.11-.57.85-.47c.32-.17.64-.37,1-.57l0,0c.33-.19.64-.4,1-.61l.85-.59c.31-.22.61-.45.92-.69s.84-.67,1.25-1C277.87,402,278.92,402.16,280,402.33Z"/><path class="cls-1" d="M321.63,108.06A65.63,65.63,0,0,1,256,173.69c-2,0-3.91-.09-5.83-.27,0,0,0,0,0,0a65.33,65.33,0,0,1-40.44-18.87.38.38,0,0,1-.1-.09,65.42,65.42,0,0,1-19.21-46.4c0-8.77,7.67-15.42,19.31-19.94a92.46,92.46,0,0,1,15.79-4.44c2.13-.44,4.31-.81,6.54-1.14.44.5.89,1,1.37,1.46a31.95,31.95,0,0,0,45.22,0c.48-.46.93-1,1.37-1.46C303.1,85.94,321.63,94.44,321.63,108.06Z"/><path class="cls-2" d="M280,82.54c-.44.5-.89,1-1.37,1.46a31.95,31.95,0,0,1-45.22,0c-.48-.46-.93-1-1.37-1.46l1.33-.19c.62-.09,1.23-.17,1.85-.24a31,31,0,0,0,4.67,3.34c.34.21.68.4,1,.58s.82.44,1.23.64h0c.38.19.75.36,1.14.53s1,.4,1.48.6c.85.32,1.74.61,2.64.86.45.13.91.25,1.38.35s.91.2,1.37.29a32.2,32.2,0,0,0,5.84.53h0c.5,0,1,0,1.48,0l1.14-.08c.3,0,.61,0,.92-.1a4.67,4.67,0,0,0,.63-.07c.41,0,.82-.11,1.23-.19a6.53,6.53,0,0,0,.77-.14,4.7,4.7,0,0,0,.63-.13,6.36,6.36,0,0,0,.73-.16,2.92,2.92,0,0,0,.4-.1l.88-.23s.06,0,.08,0c.8-.22,1.6-.49,2.38-.78l1.16-.47.64-.28.8-.37c.38-.18.74-.37,1.11-.56s.56-.3.85-.48.64-.36,1-.57l0,0c.33-.2.64-.4,1-.62l.85-.58.21-.15.71-.54c.42-.34.84-.67,1.25-1C277.87,82.24,278.92,82.38,280,82.54Z"/><path class="cls-1" d="M288,50.49a29.77,29.77,0,0,1-.21,3.67c-.06.58-.14,1.16-.25,1.72a32,32,0,0,0-63,0c-.11-.58-.19-1.16-.26-1.76A32,32,0,1,1,288,50.49Z"/><path class="cls-2" d="M287.51,55.88a28.6,28.6,0,0,1-1.08,4.45c-.34,1-.73,2.06-1.16,3.05-.16.39-.35.78-.53,1.15l-.61,1.19c-.42.77-.87,1.53-1.36,2.27A32,32,0,0,1,256,82.49a32,32,0,0,1-22.6-9.38c-.63-.63-1.22-1.28-1.79-2-.29-.34-.56-.68-.83-1s-.53-.7-.79-1.06-.55-.79-.82-1.19-.42-.67-.63-1a31,31,0,0,1-2.95-6.47c-.21-.66-.4-1.32-.58-2s-.37-1.62-.51-2.46h0a32,32,0,0,1,63,0Z"/><path class="cls-3" d="M287.51,55.88a31.39,31.39,0,0,1-1.08,4.45c-.34,1-.73,2.06-1.16,3.05-.16.39-.35.78-.53,1.15s-.39.79-.61,1.19c-.42.77-.87,1.53-1.36,2.27A32,32,0,0,1,256,82.49a32,32,0,0,1-22.6-9.38c-.63-.63-1.22-1.28-1.79-2-.29-.34-.56-.68-.83-1s-.53-.7-.79-1.06-.55-.79-.82-1.19-.42-.67-.63-1a31,31,0,0,1-2.95-6.47c-.21-.66-.4-1.32-.58-2s-.37-1.62-.51-2.46h0a32,32,0,0,1,63,0Z"/><path class="cls-3" d="M280,82.54c-.44.5-.89,1-1.37,1.46a31.95,31.95,0,0,1-45.22,0c-.48-.46-.93-1-1.37-1.46l1.33-.19c.62-.09,1.23-.17,1.85-.24a31,31,0,0,0,4.67,3.34c.34.21.68.4,1,.58s.81.44,1.23.64h0c.37.19.76.36,1.14.53s1,.4,1.48.6c.86.32,1.74.6,2.64.86l1.38.35c.46.11.91.2,1.37.29a32.2,32.2,0,0,0,5.84.53h0c.5,0,1,0,1.48,0l1.14-.08c.3,0,.62,0,.92-.1a4.5,4.5,0,0,0,.63-.07c.41,0,.82-.11,1.23-.19a5.19,5.19,0,0,0,.77-.14,5,5,0,0,0,.63-.13,6.86,6.86,0,0,0,.73-.16,2.92,2.92,0,0,0,.4-.1l.88-.23s.06,0,.08,0c.81-.23,1.6-.49,2.38-.78l1.16-.47.64-.28.8-.37c.38-.18.74-.37,1.11-.56s.56-.3.85-.48.64-.36,1-.57l0,0c.33-.2.64-.4,1-.62l.85-.58.92-.69c.42-.34.84-.67,1.25-1C277.87,82.24,278.92,82.38,280,82.54Z"/><path class="cls-1" d="M131.27,427.85a65.64,65.64,0,0,1-65.64,65.63q-3,0-5.84-.27a0,0,0,0,1,0,0,65.41,65.41,0,0,1-40.45-18.87l-.09-.09A65.4,65.4,0,0,1,0,427.85c0-8.77,7.68-15.42,19.31-19.94a93.9,93.9,0,0,1,15.79-4.45c2.13-.43,4.32-.81,6.54-1.13.45.49.89,1,1.38,1.46a31.93,31.93,0,0,0,45.21,0c.49-.47.93-1,1.37-1.46C112.74,405.72,131.27,414.22,131.27,427.85Z"/><path class="cls-2" d="M89.6,402.33c-.44.49-.88,1-1.37,1.46a31.93,31.93,0,0,1-45.21,0c-.49-.47-.93-1-1.38-1.46l1.33-.2,1.85-.24a31.11,31.11,0,0,0,4.68,3.35c.33.2.68.4,1,.58s.82.43,1.24.64h0l1.13.53,1.48.59q1.29.5,2.64.87c.46.13.91.25,1.39.34s.9.21,1.37.29a32.12,32.12,0,0,0,5.84.53h0c.5,0,1,0,1.47,0l1.15-.07.92-.1a3.4,3.4,0,0,0,.62-.08c.41,0,.82-.1,1.24-.18.26,0,.51-.09.76-.14a5.84,5.84,0,0,0,.63-.13c.25,0,.5-.1.74-.16s.27-.07.4-.1c.29-.08.58-.15.87-.24l.09,0c.8-.23,1.6-.5,2.38-.79l1.15-.46.64-.29c.27-.11.53-.23.8-.36s.75-.37,1.12-.57.56-.3.84-.47.65-.37,1-.57l.06,0c.32-.19.64-.4,1-.61l.84-.59a1.43,1.43,0,0,0,.22-.15c.24-.17.47-.36.7-.54.42-.33.85-.67,1.26-1C87.51,402,88.56,402.16,89.6,402.33Z"/><path class="cls-1" d="M97.61,370.28A31.86,31.86,0,0,1,97.4,374c-.07.58-.15,1.16-.26,1.72a32,32,0,0,0-63,0c-.11-.58-.19-1.16-.25-1.75a29.76,29.76,0,0,1-.23-3.67,32,32,0,0,1,64,0Z"/><path class="cls-2" d="M97.14,375.67a28.21,28.21,0,0,1-1.08,4.44,29.63,29.63,0,0,1-1.16,3.06c-.16.39-.35.77-.53,1.14s-.4.79-.61,1.19c-.42.78-.87,1.53-1.35,2.27a32.06,32.06,0,0,1-4.17,5.12,31.93,31.93,0,0,1-45.21,0c-.63-.63-1.23-1.27-1.79-1.95-.29-.33-.56-.67-.84-1s-.53-.71-.79-1.06l-.82-1.19-.63-1a31.25,31.25,0,0,1-2.94-6.47c-.21-.66-.4-1.32-.58-2s-.37-1.63-.52-2.46v0a32,32,0,0,1,63,0Z"/><path class="cls-3" d="M97.14,375.67a31.26,31.26,0,0,1-1.08,4.44,29.63,29.63,0,0,1-1.16,3.06c-.16.39-.35.77-.53,1.14s-.38.79-.61,1.19c-.42.78-.87,1.53-1.35,2.27a32.06,32.06,0,0,1-4.17,5.12,31.93,31.93,0,0,1-45.21,0c-.63-.63-1.23-1.27-1.79-1.95-.29-.33-.56-.67-.84-1s-.53-.71-.79-1.06l-.82-1.19-.63-1a31.25,31.25,0,0,1-2.94-6.47c-.21-.66-.4-1.32-.58-2s-.37-1.63-.52-2.46v0a32,32,0,0,1,63,0Z"/><path class="cls-3" d="M89.6,402.33c-.44.49-.88,1-1.37,1.46a31.93,31.93,0,0,1-45.21,0c-.49-.47-.93-1-1.38-1.46l1.33-.2,1.85-.24a31.11,31.11,0,0,0,4.68,3.35c.33.2.68.4,1,.58s.81.43,1.24.64h0c.36.18.75.35,1.13.53l1.48.59c.87.33,1.74.61,2.64.87l1.39.34c.45.11.9.21,1.37.29a32.12,32.12,0,0,0,5.84.53h0c.5,0,1,0,1.47,0l1.15-.07.92-.1a3.29,3.29,0,0,0,.62-.08c.41,0,.82-.1,1.24-.18a6.75,6.75,0,0,0,.76-.14,6.39,6.39,0,0,0,.63-.13c.25,0,.49-.1.74-.16s.27-.07.4-.1c.29-.08.59-.15.87-.24l.09,0c.81-.24,1.6-.5,2.38-.79l1.15-.46.64-.29c.27-.11.54-.23.8-.36s.75-.37,1.12-.57.56-.3.84-.47.65-.37,1-.57l.06,0c.32-.19.64-.4,1-.61l.84-.59c.32-.22.62-.45.92-.69s.85-.67,1.26-1C87.51,402,88.56,402.16,89.6,402.33Z"/><path class="cls-3" d="M457.4,228v59.36a11,11,0,1,1-22,0V239H267v48.35a11,11,0,1,1-22.09,0V239H76.68v48.35a11,11,0,1,1-22.09,0V228a10.83,10.83,0,0,1,.49-3.29,11.3,11.3,0,0,1,2.76-4.54,10.91,10.91,0,0,1,7.79-3.22H446.36A11,11,0,0,1,457.4,228Z"/></svg>